<svg width="87" height="27" viewBox="0 0 87 27" fill="none" xmlns="http://www.w3.org/2000/svg">
<g clip-path="url(#clip0_2462_743)">
<path d="M18.8066 3.39743H0.445556C0.20973 3.39743 0.0185547 3.57074 0.0185547 3.78452V22.9458C0.0185547 23.1596 0.20973 23.3329 0.445556 23.3329H18.8066C19.0424 23.3329 19.2336 23.1596 19.2336 22.9458V3.78452C19.2336 3.57074 19.0424 3.39743 18.8066 3.39743Z" fill="#08569E"/>
<path d="M3.20091 20.1613V6.7107H15.3674V9.2471H6.29552V17.6249H15.5158V20.1613H3.20091ZM4.85419 14.5313V12.0717H14.35V14.5313H4.85419Z" fill="white"/>
<mask id="mask0_2462_743" style="mask-type:alpha" maskUnits="userSpaceOnUse" x="0" y="3" width="16" height="18">
<path d="M15.5093 20.3713H1.52588e-05V3.18704L15.5093 20.3713Z" fill="#6FCCDD"/>
</mask>
<g mask="url(#mask0_2462_743)">
<path d="M3.20093 20.1614V6.71076H15.3674V9.24717H6.29554V17.625H15.5158V20.1614H3.20093ZM4.85421 14.5313V12.0718H14.35V14.5313H4.85421Z" fill="#70CBDC"/>
</g>
<g filter="url(#filter0_d_2462_743)">
<path d="M10.0589 19.5575C11.5989 19.7042 12.8779 19.5599 12.9156 19.2353C12.9532 18.9106 11.7353 18.5284 10.1952 18.3817C8.65519 18.235 7.37623 18.3792 7.33859 18.7039C7.30094 19.0286 8.51887 19.4107 10.0589 19.5575Z" fill="white" fill-opacity="0.65"/>
</g>
<g filter="url(#filter1_d_2462_743)">
<path d="M12.8286 17.6232H6.42358C6.30567 17.6232 6.21008 17.7099 6.21008 17.8168C6.21008 17.9237 6.30567 18.0103 6.42358 18.0103H12.8286C12.9465 18.0103 13.0421 17.9237 13.0421 17.8168C13.0421 17.7099 12.9465 17.6232 12.8286 17.6232Z" fill="white" fill-opacity="0.4"/>
</g>
<g filter="url(#filter2_d_2462_743)">
<path d="M14.7501 19.7523H3.43457C3.31665 19.7523 3.22107 19.8389 3.22107 19.9458C3.22107 20.0527 3.31665 20.1394 3.43457 20.1394H14.7501C14.868 20.1394 14.9636 20.0527 14.9636 19.9458C14.9636 19.8389 14.868 19.7523 14.7501 19.7523Z" fill="white" fill-opacity="0.4"/>
</g>
</g>
<path d="M38.9141 18H29.5801V17.2266L30.5117 17.1562C30.6406 17.1445 30.7373 17.0977 30.8018 17.0156C30.8721 16.9336 30.9072 16.8486 30.9072 16.7607V7.16309C30.9072 7.0752 30.8721 6.99023 30.8018 6.9082C30.7373 6.82031 30.6406 6.77344 30.5117 6.76758L29.5801 6.69727V5.92383H38.3252V8.60449H37.2441L36.9717 7.12793C36.9658 7.04004 36.9307 6.96094 36.8662 6.89062C36.8018 6.82031 36.7285 6.78516 36.6465 6.78516H32.7441V11.2676H35.4424C35.5244 11.2676 35.5977 11.2324 35.6621 11.1621C35.7324 11.0918 35.7676 11.0244 35.7676 10.96L35.9521 9.7207H36.8662V13.7373H35.9521L35.7676 12.4893C35.7676 12.4248 35.7324 12.3545 35.6621 12.2783C35.5918 12.2021 35.5186 12.1641 35.4424 12.1641H32.7441V17.1211H37.2969C37.373 17.1211 37.4434 17.0801 37.5078 16.998C37.5781 16.9102 37.6162 16.8369 37.6221 16.7783L37.9473 14.9941H38.9141V18ZM54.708 18H50.1641V17.2266L51.1221 17.1562C51.251 17.1445 51.3477 17.0977 51.4121 17.0156C51.4824 16.9336 51.5176 16.8486 51.5176 16.7607V6.83789L47.3779 18H46.4814L42.4824 7.00488V16.7607C42.4824 16.8486 42.5146 16.9336 42.5791 17.0156C42.6494 17.0977 42.749 17.1445 42.8779 17.1562L43.9062 17.2266V18H40.0127V17.2266L41.041 17.1562C41.1699 17.1445 41.2637 17.0977 41.3223 17.0156C41.3867 16.9336 41.4189 16.8486 41.4189 16.7607V7.16309C41.4189 7.0752 41.3867 6.99023 41.3223 6.9082C41.2637 6.82031 41.1699 6.77344 41.041 6.76758L40.0127 6.69727V5.92383H44.0469V6.40723L47.3076 15.249L50.5684 6.45996V5.92383H54.708V6.69727L53.7324 6.76758C53.6035 6.77344 53.5039 6.82031 53.4336 6.9082C53.3691 6.99023 53.3369 7.0752 53.3369 7.16309V16.7607C53.3369 16.8486 53.3691 16.9336 53.4336 17.0156C53.5039 17.0977 53.6035 17.1445 53.7324 17.1562L54.708 17.2266V18ZM63.9365 14.6162C63.9365 15.2197 63.7725 15.8027 63.4443 16.3652C63.1221 16.9277 62.6094 17.3906 61.9062 17.7539C61.209 18.1113 60.2949 18.29 59.1641 18.29C58.5195 18.29 57.957 18.2344 57.4766 18.123C56.9961 18.0117 56.624 17.9004 56.3604 17.7891C56.0967 17.6777 55.9648 17.6221 55.9648 17.6221V14.4316H57.0986L57.3359 16.4707C57.3477 16.541 57.3857 16.6172 57.4502 16.6992C57.5146 16.7812 57.5762 16.8369 57.6348 16.8662C57.6641 16.8721 57.834 16.9424 58.1445 17.0771C58.4609 17.2119 58.8975 17.2793 59.4541 17.2793C60.2217 17.2793 60.8545 17.0918 61.3525 16.7168C61.8506 16.3418 62.0996 15.8203 62.0996 15.1523C62.0996 14.7891 61.9971 14.4727 61.792 14.2031C61.5928 13.9277 61.332 13.6846 61.0098 13.4736C60.6875 13.2627 60.3418 13.0723 59.9727 12.9023C59.6094 12.7266 59.2637 12.5596 58.9355 12.4014C58.4434 12.167 57.9863 11.918 57.5645 11.6543C57.1426 11.3848 56.8027 11.0537 56.5449 10.6611C56.2871 10.2686 56.1582 9.76758 56.1582 9.1582C56.1582 8.44336 56.3398 7.82227 56.7031 7.29492C57.0664 6.76758 57.5615 6.36035 58.1885 6.07324C58.8154 5.78027 59.5244 5.63379 60.3154 5.63379C60.96 5.63379 61.5283 5.69824 62.0205 5.82715C62.5127 5.9502 62.9492 6.07324 63.3301 6.19629L63.4883 6.24902V9.05273H62.46L62.1875 7.33008C62.1758 7.24805 62.1377 7.18945 62.0732 7.1543C62.0146 7.11328 61.959 7.06641 61.9062 7.01367C61.8594 6.97852 61.7129 6.90234 61.4668 6.78516C61.2266 6.66797 60.8516 6.60938 60.3418 6.60938C59.6211 6.60938 59.0527 6.81152 58.6367 7.21582C58.2207 7.61426 58.0127 8.11816 58.0127 8.72754C58.0127 9.27832 58.2266 9.73535 58.6543 10.0986C59.0879 10.4619 59.709 10.7988 60.5176 11.1094C61.6074 11.5195 62.4482 11.9824 63.04 12.498C63.6377 13.0078 63.9365 13.7139 63.9365 14.6162Z" fill="white"/>
<path d="M25.0403 21.9375H22.9661V21.7656L23.1731 21.75C23.2018 21.7474 23.2233 21.737 23.2376 21.7188C23.2532 21.7005 23.261 21.6816 23.261 21.6621V19.5293C23.261 19.5098 23.2532 19.4909 23.2376 19.4727C23.2233 19.4531 23.2018 19.4427 23.1731 19.4414L22.9661 19.4258V19.2539H24.9095V19.8496H24.6692L24.6087 19.5215C24.6074 19.502 24.5996 19.4844 24.5852 19.4688C24.5709 19.4531 24.5546 19.4453 24.5364 19.4453H23.6692V20.4414H24.2688C24.2871 20.4414 24.3033 20.4336 24.3177 20.418C24.3333 20.4023 24.3411 20.3874 24.3411 20.373L24.3821 20.0977H24.5852V20.9902H24.3821L24.3411 20.7129C24.3411 20.6986 24.3333 20.6829 24.3177 20.666C24.302 20.6491 24.2858 20.6406 24.2688 20.6406H23.6692V21.7422H24.6809C24.6979 21.7422 24.7135 21.7331 24.7278 21.7148C24.7434 21.6953 24.7519 21.679 24.7532 21.666L24.8255 21.2695H25.0403V21.9375ZM27.3567 21.9375H26.4739V21.7812L26.6419 21.7695C26.6653 21.7669 26.6848 21.7578 26.7005 21.7422C26.7174 21.7266 26.7259 21.7064 26.7259 21.6816V20.6406C26.7259 20.5143 26.6966 20.4186 26.638 20.3535C26.5794 20.2871 26.4804 20.2539 26.3411 20.2539C26.2656 20.2539 26.1901 20.265 26.1145 20.2871C26.0403 20.3079 25.9694 20.3353 25.9016 20.3691V21.6816C25.9016 21.7363 25.9296 21.7656 25.9856 21.7695L26.1536 21.7812V21.9375H25.2493V21.7812L25.4446 21.7695C25.5006 21.7656 25.5286 21.7363 25.5286 21.6816V20.293H25.2493V20.1621L25.7376 20.0098H25.9016V20.209C26.0136 20.1452 26.1282 20.0879 26.2454 20.0371C26.3639 19.9863 26.4694 19.9609 26.5618 19.9609C26.7363 19.9609 26.8691 20.0156 26.9602 20.125C27.0514 20.2331 27.097 20.3841 27.097 20.5781V21.6816C27.097 21.7064 27.1048 21.7266 27.1204 21.7422C27.1373 21.7578 27.1575 21.7669 27.1809 21.7695L27.3567 21.7812V21.9375ZM29.263 21.7383C29.151 21.8073 29.0299 21.8659 28.8997 21.9141C28.7708 21.9622 28.6386 21.9863 28.5032 21.9863C28.3417 21.9863 28.1901 21.9505 28.0481 21.8789C27.9075 21.806 27.7936 21.696 27.7063 21.5488C27.6191 21.4017 27.5755 21.2168 27.5755 20.9941C27.5755 20.7858 27.6158 20.6042 27.6966 20.4492C27.7773 20.2943 27.8886 20.1745 28.0305 20.0898C28.1725 20.0039 28.3339 19.9609 28.5149 19.9609C28.7636 19.9609 28.9505 20.0384 29.0755 20.1934C29.2005 20.347 29.263 20.543 29.263 20.7812C29.263 20.7943 29.263 20.8118 29.263 20.834C29.263 20.8548 29.2617 20.8743 29.2591 20.8926H27.9622C27.9622 20.9941 27.9726 21.0957 27.9934 21.1973C28.0156 21.2975 28.052 21.3887 28.1028 21.4707C28.1536 21.5527 28.222 21.6185 28.3079 21.668C28.3938 21.7174 28.5013 21.7422 28.6302 21.7422C28.7447 21.7422 28.8561 21.7161 28.9641 21.6641C29.0735 21.6107 29.1731 21.554 29.263 21.4941V21.7383ZM28.8626 20.7129V20.625C28.8626 20.4935 28.8307 20.3828 28.7669 20.293C28.7044 20.2031 28.6067 20.1582 28.4739 20.1582C28.3424 20.1582 28.2304 20.2077 28.138 20.3066C28.0455 20.4056 27.9941 20.541 27.9837 20.7129H28.8626ZM30.9231 20.418H30.7669C30.7421 20.388 30.7122 20.3626 30.677 20.3418C30.6432 20.3197 30.6015 20.3086 30.552 20.3086C30.4882 20.3086 30.4225 20.3307 30.3548 20.375C30.2884 20.4193 30.2207 20.4798 30.1516 20.5566V21.6816C30.1516 21.7376 30.1796 21.7669 30.2356 21.7695L30.4993 21.7812V21.9375H29.4993V21.7852L29.6966 21.7695C29.72 21.7669 29.7395 21.7578 29.7552 21.7422C29.7721 21.7266 29.7805 21.7064 29.7805 21.6816V20.293H29.4915V20.1621L29.9876 20.0098H30.1516V20.3652C30.1907 20.3223 30.2395 20.2689 30.2981 20.2051C30.3567 20.1413 30.4192 20.0846 30.4856 20.0352C30.552 19.9857 30.6165 19.9609 30.679 19.9609C30.7207 19.9609 30.7656 19.9674 30.8138 19.9805C30.8619 19.9935 30.8984 20.0072 30.9231 20.0215V20.418ZM32.9973 20.2773H32.5989C32.6289 20.3255 32.6542 20.3783 32.6751 20.4355C32.6959 20.4928 32.7063 20.5599 32.7063 20.6367C32.7063 20.7695 32.6699 20.8835 32.597 20.9785C32.524 21.0723 32.4277 21.1445 32.3079 21.1953C32.1894 21.2461 32.0605 21.2715 31.9212 21.2715C31.9082 21.2715 31.8951 21.2715 31.8821 21.2715C31.8691 21.2715 31.8561 21.2708 31.843 21.2695C31.8261 21.2969 31.8144 21.3262 31.8079 21.3574C31.8027 21.3887 31.8001 21.418 31.8001 21.4453C31.8001 21.4701 31.8014 21.4909 31.804 21.5078C31.8066 21.5247 31.8085 21.5345 31.8098 21.5371L31.8665 21.543C31.9602 21.5521 32.0651 21.5651 32.1809 21.582C32.2981 21.599 32.4108 21.6263 32.5188 21.6641C32.6282 21.7018 32.718 21.7552 32.7884 21.8242C32.8587 21.8932 32.8938 21.9844 32.8938 22.0977C32.8938 22.224 32.8476 22.3444 32.7552 22.459C32.6627 22.5749 32.5377 22.6693 32.3802 22.7422C32.2239 22.8164 32.0488 22.8535 31.8548 22.8535C31.6165 22.8535 31.4316 22.7988 31.3001 22.6895C31.1686 22.5814 31.1028 22.4466 31.1028 22.2852C31.1028 22.1693 31.1373 22.0658 31.2063 21.9746C31.2753 21.8848 31.3821 21.8268 31.5266 21.8008C31.5123 21.7591 31.5019 21.7292 31.4954 21.7109C31.4889 21.6927 31.4856 21.6615 31.4856 21.6172C31.4856 21.5651 31.5013 21.5078 31.5325 21.4453C31.5651 21.3815 31.6165 21.3138 31.6868 21.2422C31.554 21.2122 31.4381 21.1452 31.3391 21.041C31.2402 20.9355 31.1907 20.8021 31.1907 20.6406C31.1907 20.431 31.2643 20.2656 31.4114 20.1445C31.5598 20.0221 31.7539 19.9609 31.9934 19.9609C32.0885 19.9609 32.1764 19.9753 32.2571 20.0039C32.3391 20.0312 32.4062 20.0573 32.4583 20.082H32.9973V20.2773ZM32.3255 20.6133C32.3255 20.5286 32.3111 20.4492 32.2825 20.375C32.2539 20.3008 32.2122 20.2409 32.1575 20.1953C32.1028 20.1484 32.0351 20.125 31.9544 20.125C31.8424 20.125 31.7506 20.1686 31.679 20.2559C31.6087 20.3418 31.5735 20.4622 31.5735 20.6172C31.5735 20.7513 31.6054 20.8665 31.6692 20.9629C31.733 21.0579 31.8281 21.1055 31.9544 21.1055C32.0742 21.1055 32.166 21.0573 32.2298 20.9609C32.2936 20.8646 32.3255 20.7487 32.3255 20.6133ZM32.5501 22.2051C32.5501 22.1217 32.5208 22.0573 32.4622 22.0117C32.4049 21.9661 32.3333 21.9323 32.2473 21.9102C32.1614 21.888 32.0748 21.8724 31.9876 21.8633C31.9003 21.8529 31.8268 21.8418 31.7669 21.8301C31.651 21.8717 31.5709 21.9284 31.5266 22C31.4837 22.0716 31.4622 22.14 31.4622 22.2051C31.4622 22.2689 31.4804 22.3366 31.5169 22.4082C31.5546 22.4811 31.6119 22.543 31.6888 22.5938C31.7669 22.6445 31.8658 22.6699 31.9856 22.6699C32.1132 22.6699 32.2187 22.6445 32.302 22.5938C32.3854 22.543 32.4472 22.4811 32.4876 22.4082C32.5292 22.3366 32.5501 22.2689 32.5501 22.2051ZM35.1477 20.166L34.9388 20.1895L34.1712 22.0605C34.1542 22.1035 34.1276 22.1647 34.0911 22.2441C34.0559 22.3249 34.0136 22.4069 33.9641 22.4902C33.916 22.5749 33.8639 22.6452 33.8079 22.7012C33.7597 22.7493 33.7063 22.7865 33.6477 22.8125C33.5904 22.8398 33.5279 22.8535 33.4602 22.8535C33.3652 22.8535 33.2923 22.8301 33.2415 22.7832C33.192 22.7376 33.1673 22.6849 33.1673 22.625C33.1673 22.5365 33.2102 22.4564 33.2962 22.3848L33.6712 22.5566C33.7154 22.5124 33.7597 22.4525 33.804 22.377C33.8483 22.3014 33.888 22.2233 33.9231 22.1426C33.9596 22.0618 33.9876 21.9922 34.0071 21.9336L33.3274 20.1895L33.1067 20.166V20.0098H33.9915V20.166L33.8001 20.1777C33.7571 20.1816 33.7356 20.2031 33.7356 20.2422C33.7356 20.2526 33.7369 20.2604 33.7395 20.2656L34.2044 21.4453L34.679 20.2656C34.6829 20.2578 34.6848 20.2493 34.6848 20.2402C34.6848 20.2012 34.6647 20.1803 34.6243 20.1777L34.4348 20.166V20.0098H35.1477V20.166ZM40.3704 21.9375H39.3606V21.7656L39.5735 21.75C39.6022 21.7474 39.6236 21.737 39.638 21.7188C39.6536 21.7005 39.6614 21.6816 39.6614 21.6621V19.457L38.7415 21.9375H38.5423L37.6536 19.4941V21.6621C37.6536 21.6816 37.6608 21.7005 37.6751 21.7188C37.6907 21.737 37.7128 21.7474 37.7415 21.75L37.97 21.7656V21.9375H37.1048V21.7656L37.3333 21.75C37.3619 21.7474 37.3828 21.737 37.3958 21.7188C37.4101 21.7005 37.4173 21.6816 37.4173 21.6621V19.5293C37.4173 19.5098 37.4101 19.4909 37.3958 19.4727C37.3828 19.4531 37.3619 19.4427 37.3333 19.4414L37.1048 19.4258V19.2539H38.0013V19.3613L38.7259 21.3262L39.4505 19.373V19.2539H40.3704V19.4258L40.1536 19.4414C40.1249 19.4427 40.1028 19.4531 40.0872 19.4727C40.0729 19.4909 40.0657 19.5098 40.0657 19.5293V21.6621C40.0657 21.6816 40.0729 21.7005 40.0872 21.7188C40.1028 21.737 40.1249 21.7474 40.1536 21.75L40.3704 21.7656V21.9375ZM42.5325 20.9766C42.5325 21.1654 42.4934 21.3366 42.4153 21.4902C42.3372 21.6426 42.2265 21.7637 42.0833 21.8535C41.9414 21.9421 41.7727 21.9863 41.5774 21.9863C41.3834 21.9863 41.2154 21.9421 41.0735 21.8535C40.9316 21.765 40.8222 21.6445 40.7454 21.4922C40.6686 21.3398 40.6302 21.168 40.6302 20.9766C40.6302 20.7865 40.6686 20.6146 40.7454 20.4609C40.8235 20.3073 40.9342 20.1855 41.0774 20.0957C41.222 20.0059 41.3925 19.9609 41.5891 19.9609C41.7884 19.9609 41.9583 20.0065 42.0989 20.0977C42.2395 20.1888 42.347 20.3112 42.4212 20.4648C42.4954 20.6185 42.5325 20.7891 42.5325 20.9766ZM42.1165 20.9727C42.1165 20.8268 42.097 20.6908 42.0579 20.5645C42.0201 20.4382 41.9615 20.3359 41.8821 20.2578C41.804 20.1797 41.705 20.1406 41.5852 20.1406C41.4615 20.1406 41.36 20.1797 41.2805 20.2578C41.2024 20.3359 41.1445 20.4382 41.1067 20.5645C41.069 20.6908 41.0501 20.8268 41.0501 20.9727C41.0501 21.1172 41.069 21.2533 41.1067 21.3809C41.1458 21.5072 41.2044 21.6094 41.2825 21.6875C41.3619 21.7656 41.4615 21.8047 41.5813 21.8047C41.7037 21.8047 41.804 21.7656 41.8821 21.6875C41.9615 21.6094 42.0201 21.5072 42.0579 21.3809C42.097 21.2546 42.1165 21.1185 42.1165 20.9727ZM44.8567 21.9375H43.9739V21.7812L44.1419 21.7695C44.1653 21.7669 44.1848 21.7578 44.2005 21.7422C44.2174 21.7266 44.2259 21.7064 44.2259 21.6816V20.6406C44.2259 20.5143 44.1966 20.4186 44.138 20.3535C44.0794 20.2871 43.9804 20.2539 43.8411 20.2539C43.7656 20.2539 43.6901 20.265 43.6145 20.2871C43.5403 20.3079 43.4694 20.3353 43.4016 20.3691V21.6816C43.4016 21.7363 43.4296 21.7656 43.4856 21.7695L43.6536 21.7812V21.9375H42.7493V21.7812L42.9446 21.7695C43.0006 21.7656 43.0286 21.7363 43.0286 21.6816V20.293H42.7493V20.1621L43.2376 20.0098H43.4016V20.209C43.5136 20.1452 43.6282 20.0879 43.7454 20.0371C43.8639 19.9863 43.9694 19.9609 44.0618 19.9609C44.2363 19.9609 44.3691 20.0156 44.4602 20.125C44.5514 20.2331 44.597 20.3841 44.597 20.5781V21.6816C44.597 21.7064 44.6048 21.7266 44.6204 21.7422C44.6373 21.7578 44.6575 21.7669 44.6809 21.7695L44.8567 21.7812V21.9375ZM45.8098 19.3496C45.8098 19.4173 45.7864 19.4759 45.7395 19.5254C45.6927 19.5736 45.6354 19.5977 45.5677 19.5977C45.4999 19.5977 45.4414 19.5736 45.3919 19.5254C45.3437 19.4759 45.3196 19.4173 45.3196 19.3496C45.3196 19.2806 45.3437 19.2227 45.3919 19.1758C45.4414 19.1289 45.4999 19.1055 45.5677 19.1055C45.6354 19.1055 45.6927 19.1289 45.7395 19.1758C45.7864 19.2227 45.8098 19.2806 45.8098 19.3496ZM46.0149 21.9375H45.0755V21.7812L45.2708 21.7695C45.3268 21.7656 45.3548 21.7363 45.3548 21.6816V20.2539H45.0794V20.1133L45.5677 19.9609H45.7259V21.6816C45.7259 21.7064 45.7337 21.7266 45.7493 21.7422C45.7662 21.7578 45.7864 21.7669 45.8098 21.7695L46.0149 21.7812V21.9375ZM47.4856 21.6934V21.8535C47.4856 21.8535 47.4602 21.8646 47.4095 21.8867C47.36 21.9089 47.2942 21.931 47.2122 21.9531C47.1315 21.9753 47.0429 21.9863 46.9466 21.9863C46.7968 21.9863 46.6874 21.9512 46.6184 21.8809C46.5507 21.8092 46.5169 21.6947 46.5169 21.5371V20.209H46.261V20.0781L46.5345 19.9492L46.7141 19.5254H46.8899V20.0098H47.4544V20.209H46.8899V21.3262C46.8899 21.485 46.9166 21.5977 46.97 21.6641C47.0234 21.7292 47.1035 21.7617 47.2102 21.7617C47.2884 21.7617 47.3535 21.7507 47.4055 21.7285C47.4589 21.7051 47.4856 21.6934 47.4856 21.6934ZM49.552 20.9766C49.552 21.1654 49.513 21.3366 49.4348 21.4902C49.3567 21.6426 49.246 21.7637 49.1028 21.8535C48.9609 21.9421 48.7923 21.9863 48.597 21.9863C48.4029 21.9863 48.235 21.9421 48.093 21.8535C47.9511 21.765 47.8417 21.6445 47.7649 21.4922C47.6881 21.3398 47.6497 21.168 47.6497 20.9766C47.6497 20.7865 47.6881 20.6146 47.7649 20.4609C47.843 20.3073 47.9537 20.1855 48.097 20.0957C48.2415 20.0059 48.4121 19.9609 48.6087 19.9609C48.8079 19.9609 48.9778 20.0065 49.1184 20.0977C49.2591 20.1888 49.3665 20.3112 49.4407 20.4648C49.5149 20.6185 49.552 20.7891 49.552 20.9766ZM49.136 20.9727C49.136 20.8268 49.1165 20.6908 49.0774 20.5645C49.0397 20.4382 48.9811 20.3359 48.9016 20.2578C48.8235 20.1797 48.7246 20.1406 48.6048 20.1406C48.4811 20.1406 48.3795 20.1797 48.3001 20.2578C48.222 20.3359 48.164 20.4382 48.1263 20.5645C48.0885 20.6908 48.0696 20.8268 48.0696 20.9727C48.0696 21.1172 48.0885 21.2533 48.1263 21.3809C48.1653 21.5072 48.2239 21.6094 48.302 21.6875C48.3815 21.7656 48.4811 21.8047 48.6009 21.8047C48.7233 21.8047 48.8235 21.7656 48.9016 21.6875C48.9811 21.6094 49.0397 21.5072 49.0774 21.3809C49.1165 21.2546 49.136 21.1185 49.136 20.9727ZM51.2122 20.418H51.0559C51.0312 20.388 51.0013 20.3626 50.9661 20.3418C50.9322 20.3197 50.8906 20.3086 50.8411 20.3086C50.7773 20.3086 50.7115 20.3307 50.6438 20.375C50.5774 20.4193 50.5097 20.4798 50.4407 20.5566V21.6816C50.4407 21.7376 50.4687 21.7669 50.5247 21.7695L50.7884 21.7812V21.9375H49.7884V21.7852L49.9856 21.7695C50.0091 21.7669 50.0286 21.7578 50.0442 21.7422C50.0611 21.7266 50.0696 21.7064 50.0696 21.6816V20.293H49.7805V20.1621L50.2766 20.0098H50.4407V20.3652C50.4798 20.3223 50.5286 20.2689 50.5872 20.2051C50.6458 20.1413 50.7083 20.0846 50.7747 20.0352C50.8411 19.9857 50.9055 19.9609 50.968 19.9609C51.0097 19.9609 51.0546 19.9674 51.1028 19.9805C51.151 19.9935 51.1874 20.0072 51.2122 20.0215V20.418ZM52.1263 19.3496C52.1263 19.4173 52.1028 19.4759 52.0559 19.5254C52.0091 19.5736 51.9518 19.5977 51.8841 19.5977C51.8164 19.5977 51.7578 19.5736 51.7083 19.5254C51.6601 19.4759 51.636 19.4173 51.636 19.3496C51.636 19.2806 51.6601 19.2227 51.7083 19.1758C51.7578 19.1289 51.8164 19.1055 51.8841 19.1055C51.9518 19.1055 52.0091 19.1289 52.0559 19.1758C52.1028 19.2227 52.1263 19.2806 52.1263 19.3496ZM52.3313 21.9375H51.3919V21.7812L51.5872 21.7695C51.6432 21.7656 51.6712 21.7363 51.6712 21.6816V20.2539H51.3958V20.1133L51.8841 19.9609H52.0423V21.6816C52.0423 21.7064 52.0501 21.7266 52.0657 21.7422C52.0826 21.7578 52.1028 21.7669 52.1263 21.7695L52.3313 21.7812V21.9375ZM54.6575 21.9375H53.7747V21.7812L53.9427 21.7695C53.9661 21.7669 53.9856 21.7578 54.0013 21.7422C54.0182 21.7266 54.0266 21.7064 54.0266 21.6816V20.6406C54.0266 20.5143 53.9973 20.4186 53.9388 20.3535C53.8802 20.2871 53.7812 20.2539 53.6419 20.2539C53.5664 20.2539 53.4908 20.265 53.4153 20.2871C53.3411 20.3079 53.2701 20.3353 53.2024 20.3691V21.6816C53.2024 21.7363 53.2304 21.7656 53.2864 21.7695L53.4544 21.7812V21.9375H52.5501V21.7812L52.7454 21.7695C52.8014 21.7656 52.8294 21.7363 52.8294 21.6816V20.293H52.5501V20.1621L53.0384 20.0098H53.2024V20.209C53.3144 20.1452 53.429 20.0879 53.5462 20.0371C53.6647 19.9863 53.7701 19.9609 53.8626 19.9609C54.0371 19.9609 54.1699 20.0156 54.261 20.125C54.3522 20.2331 54.3977 20.3841 54.3977 20.5781V21.6816C54.3977 21.7064 54.4055 21.7266 54.4212 21.7422C54.4381 21.7578 54.4583 21.7669 54.4817 21.7695L54.6575 21.7812V21.9375ZM56.7708 20.2773H56.3723C56.4023 20.3255 56.4277 20.3783 56.4485 20.4355C56.4694 20.4928 56.4798 20.5599 56.4798 20.6367C56.4798 20.7695 56.4433 20.8835 56.3704 20.9785C56.2975 21.0723 56.2011 21.1445 56.0813 21.1953C55.9628 21.2461 55.8339 21.2715 55.6946 21.2715C55.6816 21.2715 55.6686 21.2715 55.6555 21.2715C55.6425 21.2715 55.6295 21.2708 55.6165 21.2695C55.5996 21.2969 55.5878 21.3262 55.5813 21.3574C55.5761 21.3887 55.5735 21.418 55.5735 21.4453C55.5735 21.4701 55.5748 21.4909 55.5774 21.5078C55.58 21.5247 55.582 21.5345 55.5833 21.5371L55.6399 21.543C55.7337 21.5521 55.8385 21.5651 55.9544 21.582C56.0716 21.599 56.1842 21.6263 56.2923 21.6641C56.4016 21.7018 56.4915 21.7552 56.5618 21.8242C56.6321 21.8932 56.6673 21.9844 56.6673 22.0977C56.6673 22.224 56.621 22.3444 56.5286 22.459C56.4361 22.5749 56.3111 22.6693 56.1536 22.7422C55.9973 22.8164 55.8222 22.8535 55.6282 22.8535C55.3899 22.8535 55.205 22.7988 55.0735 22.6895C54.942 22.5814 54.8763 22.4466 54.8763 22.2852C54.8763 22.1693 54.9108 22.0658 54.9798 21.9746C55.0488 21.8848 55.1555 21.8268 55.3001 21.8008C55.2858 21.7591 55.2753 21.7292 55.2688 21.7109C55.2623 21.6927 55.2591 21.6615 55.2591 21.6172C55.2591 21.5651 55.2747 21.5078 55.3059 21.4453C55.3385 21.3815 55.3899 21.3138 55.4602 21.2422C55.3274 21.2122 55.2115 21.1452 55.1126 21.041C55.0136 20.9355 54.9641 20.8021 54.9641 20.6406C54.9641 20.431 55.0377 20.2656 55.1848 20.1445C55.3333 20.0221 55.5273 19.9609 55.7669 19.9609C55.8619 19.9609 55.9498 19.9753 56.0305 20.0039C56.1126 20.0312 56.1796 20.0573 56.2317 20.082H56.7708V20.2773ZM56.0989 20.6133C56.0989 20.5286 56.0846 20.4492 56.0559 20.375C56.0273 20.3008 55.9856 20.2409 55.9309 20.1953C55.8763 20.1484 55.8085 20.125 55.7278 20.125C55.6158 20.125 55.524 20.1686 55.4524 20.2559C55.3821 20.3418 55.347 20.4622 55.347 20.6172C55.347 20.7513 55.3789 20.8665 55.4427 20.9629C55.5065 21.0579 55.6015 21.1055 55.7278 21.1055C55.8476 21.1055 55.9394 21.0573 56.0032 20.9609C56.067 20.8646 56.0989 20.7487 56.0989 20.6133ZM56.3235 22.2051C56.3235 22.1217 56.2942 22.0573 56.2356 22.0117C56.1783 21.9661 56.1067 21.9323 56.0208 21.9102C55.9348 21.888 55.8483 21.8724 55.761 21.8633C55.6738 21.8529 55.6002 21.8418 55.5403 21.8301C55.4244 21.8717 55.3444 21.9284 55.3001 22C55.2571 22.0716 55.2356 22.14 55.2356 22.2051C55.2356 22.2689 55.2539 22.3366 55.2903 22.4082C55.3281 22.4811 55.3854 22.543 55.4622 22.5938C55.5403 22.6445 55.6393 22.6699 55.7591 22.6699C55.8867 22.6699 55.9921 22.6445 56.0755 22.5938C56.1588 22.543 56.2207 22.4811 56.261 22.4082C56.3027 22.3366 56.3235 22.2689 56.3235 22.2051ZM60.5696 21.1855C60.5696 21.3197 60.5332 21.4492 60.4602 21.5742C60.3886 21.6992 60.2747 21.8021 60.1184 21.8828C59.9635 21.9622 59.7604 22.002 59.5091 22.002C59.3658 22.002 59.2408 21.9896 59.1341 21.9648C59.0273 21.9401 58.9446 21.9154 58.886 21.8906C58.8274 21.8659 58.7981 21.8535 58.7981 21.8535V21.1445H59.0501L59.1028 21.5977C59.1054 21.6133 59.1139 21.6302 59.1282 21.6484C59.1425 21.6667 59.1562 21.679 59.1692 21.6855C59.1757 21.6868 59.2135 21.7025 59.2825 21.7324C59.3528 21.7624 59.4498 21.7773 59.5735 21.7773C59.7441 21.7773 59.8847 21.7357 59.9954 21.6523C60.1061 21.569 60.1614 21.4531 60.1614 21.3047C60.1614 21.224 60.1386 21.1536 60.093 21.0938C60.0488 21.0326 59.9908 20.9785 59.9192 20.9316C59.8476 20.8848 59.7708 20.8424 59.6888 20.8047C59.608 20.7656 59.5312 20.7285 59.4583 20.6934C59.3489 20.6413 59.2473 20.5859 59.1536 20.5273C59.0598 20.4674 58.9843 20.3939 58.927 20.3066C58.8697 20.2194 58.8411 20.1081 58.8411 19.9727C58.8411 19.8138 58.8815 19.6758 58.9622 19.5586C59.0429 19.4414 59.1529 19.3509 59.2923 19.2871C59.4316 19.222 59.5891 19.1895 59.7649 19.1895C59.9082 19.1895 60.0345 19.2038 60.1438 19.2324C60.2532 19.2598 60.3502 19.2871 60.4348 19.3145L60.47 19.3262V19.9492H60.2415L60.1809 19.5664C60.1783 19.5482 60.1699 19.5352 60.1555 19.5273C60.1425 19.5182 60.1302 19.5078 60.1184 19.4961C60.108 19.4883 60.0755 19.4714 60.0208 19.4453C59.9674 19.4193 59.8841 19.4062 59.7708 19.4062C59.6106 19.4062 59.4843 19.4512 59.3919 19.541C59.2994 19.6296 59.2532 19.7415 59.2532 19.877C59.2532 19.9993 59.3007 20.1009 59.3958 20.1816C59.4921 20.2624 59.6302 20.3372 59.8098 20.4062C60.052 20.4974 60.2389 20.6003 60.3704 20.7148C60.5032 20.8281 60.5696 20.985 60.5696 21.1855ZM62.8079 20.166L62.5989 20.1895L61.8313 22.0605C61.8144 22.1035 61.7877 22.1647 61.7513 22.2441C61.7161 22.3249 61.6738 22.4069 61.6243 22.4902C61.5761 22.5749 61.524 22.6452 61.468 22.7012C61.4199 22.7493 61.3665 22.7865 61.3079 22.8125C61.2506 22.8398 61.1881 22.8535 61.1204 22.8535C61.0253 22.8535 60.9524 22.8301 60.9016 22.7832C60.8522 22.7376 60.8274 22.6849 60.8274 22.625C60.8274 22.5365 60.8704 22.4564 60.9563 22.3848L61.3313 22.5566C61.3756 22.5124 61.4199 22.4525 61.4641 22.377C61.5084 22.3014 61.5481 22.2233 61.5833 22.1426C61.6197 22.0618 61.6477 21.9922 61.6673 21.9336L60.9876 20.1895L60.7669 20.166V20.0098H61.6516V20.166L61.4602 20.1777C61.4173 20.1816 61.3958 20.2031 61.3958 20.2422C61.3958 20.2526 61.3971 20.2604 61.3997 20.2656L61.8645 21.4453L62.3391 20.2656C62.343 20.2578 62.345 20.2493 62.345 20.2402C62.345 20.2012 62.3248 20.1803 62.2845 20.1777L62.095 20.166V20.0098H62.8079V20.166ZM64.304 21.3574C64.304 21.554 64.2363 21.7083 64.1009 21.8203C63.9654 21.931 63.7786 21.9863 63.5403 21.9863C63.4179 21.9863 63.3046 21.9733 63.2005 21.9473C63.0976 21.9225 63.026 21.9017 62.9856 21.8848V21.3535H63.1888L63.2376 21.6934C63.2779 21.7194 63.3274 21.7448 63.386 21.7695C63.4459 21.793 63.5149 21.8047 63.593 21.8047C63.7076 21.8047 63.7962 21.7728 63.8587 21.709C63.9212 21.6452 63.9524 21.5736 63.9524 21.4941C63.9524 21.3887 63.9147 21.3092 63.8391 21.2559C63.7636 21.2012 63.6562 21.1406 63.5169 21.0742L63.4641 21.0488C63.3183 20.9798 63.2063 20.9082 63.1282 20.834C63.0514 20.7585 63.013 20.6608 63.013 20.541C63.013 20.3626 63.0755 20.2214 63.2005 20.1172C63.3255 20.013 63.5032 19.9609 63.7337 19.9609C63.8509 19.9609 63.955 19.972 64.0462 19.9941C64.1386 20.015 64.205 20.0345 64.2454 20.0527V20.5254H64.0364L64.0052 20.2461C63.9765 20.224 63.9342 20.2031 63.8782 20.1836C63.8222 20.1641 63.763 20.1543 63.7005 20.1543C63.5911 20.1543 63.5097 20.1797 63.4563 20.2305C63.4029 20.2799 63.3763 20.3438 63.3763 20.4219C63.3763 20.5117 63.4082 20.5833 63.472 20.6367C63.5371 20.6888 63.6542 20.7533 63.8235 20.8301C63.9628 20.8939 64.0774 20.9655 64.1673 21.0449C64.2584 21.123 64.304 21.2272 64.304 21.3574ZM65.7747 21.6934V21.8535C65.7747 21.8535 65.7493 21.8646 65.6985 21.8867C65.649 21.9089 65.5833 21.931 65.5013 21.9531C65.4205 21.9753 65.332 21.9863 65.2356 21.9863C65.0859 21.9863 64.9765 21.9512 64.9075 21.8809C64.8398 21.8092 64.8059 21.6947 64.8059 21.5371V20.209H64.5501V20.0781L64.8235 19.9492L65.0032 19.5254H65.179V20.0098H65.7434V20.209H65.179V21.3262C65.179 21.485 65.2057 21.5977 65.2591 21.6641C65.3124 21.7292 65.3925 21.7617 65.4993 21.7617C65.5774 21.7617 65.6425 21.7507 65.6946 21.7285C65.748 21.7051 65.7747 21.6934 65.7747 21.6934ZM67.6263 21.7383C67.5143 21.8073 67.3932 21.8659 67.263 21.9141C67.1341 21.9622 67.0019 21.9863 66.8665 21.9863C66.705 21.9863 66.5533 21.9505 66.4114 21.8789C66.2708 21.806 66.1569 21.696 66.0696 21.5488C65.9824 21.4017 65.9388 21.2168 65.9388 20.9941C65.9388 20.7858 65.9791 20.6042 66.0598 20.4492C66.1406 20.2943 66.2519 20.1745 66.3938 20.0898C66.5358 20.0039 66.6972 19.9609 66.8782 19.9609C67.1269 19.9609 67.3138 20.0384 67.4388 20.1934C67.5638 20.347 67.6263 20.543 67.6263 20.7812C67.6263 20.7943 67.6263 20.8118 67.6263 20.834C67.6263 20.8548 67.6249 20.8743 67.6223 20.8926H66.3255C66.3255 20.9941 66.3359 21.0957 66.3567 21.1973C66.3789 21.2975 66.4153 21.3887 66.4661 21.4707C66.5169 21.5527 66.5852 21.6185 66.6712 21.668C66.7571 21.7174 66.8645 21.7422 66.9934 21.7422C67.108 21.7422 67.2194 21.7161 67.3274 21.6641C67.4368 21.6107 67.5364 21.554 67.6263 21.4941V21.7383ZM67.2259 20.7129V20.625C67.2259 20.4935 67.194 20.3828 67.1302 20.293C67.0677 20.2031 66.97 20.1582 66.8372 20.1582C66.7057 20.1582 66.5937 20.2077 66.5013 20.3066C66.4088 20.4056 66.3574 20.541 66.347 20.7129H67.2259ZM71.0755 21.9375H70.179V21.7812L70.347 21.7695C70.4029 21.7656 70.4309 21.7363 70.4309 21.6816V20.6621C70.4309 20.5384 70.4049 20.4395 70.3528 20.3652C70.302 20.291 70.2096 20.2539 70.0755 20.2539C70.0091 20.2539 69.9361 20.2643 69.8567 20.2852C69.7786 20.306 69.7089 20.3327 69.6477 20.3652V21.6816C69.6477 21.7363 69.6757 21.7656 69.7317 21.7695L69.8997 21.7812V21.9375H69.0227V21.7812L69.1907 21.7695C69.2467 21.7656 69.2747 21.7363 69.2747 21.6816V20.6367C69.2747 20.5234 69.248 20.4316 69.1946 20.3613C69.1412 20.2897 69.0507 20.2539 68.9231 20.2539C68.8476 20.2539 68.7688 20.2669 68.6868 20.293C68.6048 20.3177 68.541 20.3431 68.4954 20.3691V21.6816C68.4954 21.7363 68.5234 21.7656 68.5794 21.7695L68.7473 21.7812V21.9375H67.843V21.7812L68.0384 21.7695C68.0944 21.7656 68.1223 21.7363 68.1223 21.6816V20.293H67.847V20.1621L68.3313 20.0098H68.4954V20.209C68.5553 20.1725 68.6223 20.1354 68.6966 20.0977C68.7721 20.0599 68.8489 20.028 68.927 20.002C69.0052 19.9746 69.0787 19.9609 69.1477 19.9609C69.2636 19.9609 69.3574 19.9909 69.429 20.0508C69.5006 20.1094 69.5533 20.1719 69.5872 20.2383C69.6406 20.2044 69.7083 20.166 69.7903 20.123C69.8723 20.0788 69.957 20.041 70.0442 20.0098C70.1328 19.9772 70.2122 19.9609 70.2825 19.9609C70.4231 19.9609 70.5305 19.9935 70.6048 20.0586C70.679 20.1224 70.7298 20.2018 70.7571 20.2969C70.7845 20.3906 70.7981 20.4831 70.7981 20.5742V21.6816C70.7981 21.7064 70.8059 21.7266 70.8216 21.7422C70.8385 21.7578 70.8587 21.7669 70.8821 21.7695L71.0755 21.7812V21.9375Z" fill="white"/>
<defs>
<filter id="filter0_d_2462_743" x="1.39488" y="12.3814" width="17.4644" height="13.1763" filterUnits="userSpaceOnUse" color-interpolation-filters="sRGB">
<feFlood flood-opacity="0" result="BackgroundImageFix"/>
<feColorMatrix in="SourceAlpha" type="matrix" values="0 0 0 0 0 0 0 0 0 0 0 0 0 0 0 0 0 0 127 0" result="hardAlpha"/>
<feOffset/>
<feGaussianBlur stdDeviation="2.97143"/>
<feComposite in2="hardAlpha" operator="out"/>
<feColorMatrix type="matrix" values="0 0 0 0 1 0 0 0 0 1 0 0 0 0 1 0 0 0 0.65 0"/>
<feBlend mode="normal" in2="BackgroundImageFix" result="effect1_dropShadow_2462_743"/>
<feBlend mode="normal" in="SourceGraphic" in2="effect1_dropShadow_2462_743" result="shape"/>
</filter>
<filter id="filter1_d_2462_743" x="0.267222" y="16.2518" width="18.7177" height="12.2728" filterUnits="userSpaceOnUse" color-interpolation-filters="sRGB">
<feFlood flood-opacity="0" result="BackgroundImageFix"/>
<feColorMatrix in="SourceAlpha" type="matrix" values="0 0 0 0 0 0 0 0 0 0 0 0 0 0 0 0 0 0 127 0" result="hardAlpha"/>
<feOffset dy="4.57143"/>
<feGaussianBlur stdDeviation="2.97143"/>
<feComposite in2="hardAlpha" operator="out"/>
<feColorMatrix type="matrix" values="0 0 0 0 1 0 0 0 0 1 0 0 0 0 1 0 0 0 0.4 0"/>
<feBlend mode="normal" in2="BackgroundImageFix" result="effect1_dropShadow_2462_743"/>
<feBlend mode="normal" in="SourceGraphic" in2="effect1_dropShadow_2462_743" result="shape"/>
</filter>
<filter id="filter2_d_2462_743" x="-2.72179" y="11.5237" width="23.6283" height="12.2728" filterUnits="userSpaceOnUse" color-interpolation-filters="sRGB">
<feFlood flood-opacity="0" result="BackgroundImageFix"/>
<feColorMatrix in="SourceAlpha" type="matrix" values="0 0 0 0 0 0 0 0 0 0 0 0 0 0 0 0 0 0 127 0" result="hardAlpha"/>
<feOffset dy="-2.28571"/>
<feGaussianBlur stdDeviation="2.97143"/>
<feComposite in2="hardAlpha" operator="out"/>
<feColorMatrix type="matrix" values="0 0 0 0 1 0 0 0 0 1 0 0 0 0 1 0 0 0 0.4 0"/>
<feBlend mode="normal" in2="BackgroundImageFix" result="effect1_dropShadow_2462_743"/>
<feBlend mode="normal" in="SourceGraphic" in2="effect1_dropShadow_2462_743" result="shape"/>
</filter>
<clipPath id="clip0_2462_743">
<rect width="19.4286" height="24" fill="white" transform="translate(0 1)"/>
</clipPath>
</defs>
</svg>
