<svg width="63" height="78" viewBox="0 0 63 78" fill="none" xmlns="http://www.w3.org/2000/svg">
<g clip-path="url(#clip0_1_1415)">
<path d="M60.7278 8.20215H1.70514C0.947062 8.20215 0.33252 8.75926 0.33252 9.44649V71.0415C0.33252 71.7287 0.947062 72.2858 1.70514 72.2858H60.7278C61.4858 72.2858 62.1004 71.7287 62.1004 71.0415V9.44649C62.1004 8.75926 61.4858 8.20215 60.7278 8.20215Z" fill="#08569E"/>
<path d="M10.5624 62.0904V18.8528H49.6721V27.0062H20.5102V53.937H50.1491V62.0904H10.5624ZM15.877 43.9924V36.0861H46.4017V43.9924H15.877Z" fill="white"/>
<mask id="mask0_1_1415" style="mask-type:alpha" maskUnits="userSpaceOnUse" x="0" y="7" width="51" height="56">
<path d="M50.1281 62.7653H0.272827V7.52563L50.1281 62.7653Z" fill="#6FCCDD"/>
</mask>
<g mask="url(#mask0_1_1415)">
<path d="M10.5625 62.0907V18.853H49.6723V27.0065H20.5103V53.9373H50.1492V62.0907H10.5625ZM15.8771 43.9927V36.0864H46.4018V43.9927H15.8771Z" fill="#70CBDC"/>
</g>
<g filter="url(#filter0_d_1_1415)">
<path d="M32.6079 60.1493C37.5584 60.621 41.6697 60.1573 41.7907 59.1136C41.9118 58.0699 37.9966 56.8414 33.0461 56.3697C28.0956 55.898 23.9843 56.3617 23.8633 57.4054C23.7423 58.4491 27.6574 59.6776 32.6079 60.1493Z" fill="white" fill-opacity="0.65"/>
</g>
<g filter="url(#filter1_d_1_1415)">
<path d="M41.5112 53.9316H20.9219C20.5429 53.9316 20.2356 54.2102 20.2356 54.5538C20.2356 54.8974 20.5429 55.176 20.9219 55.176H41.5112C41.8902 55.176 42.1975 54.8974 42.1975 54.5538C42.1975 54.2102 41.8902 53.9316 41.5112 53.9316Z" fill="white" fill-opacity="0.4"/>
</g>
<g filter="url(#filter2_d_1_1415)">
<path d="M47.6879 60.7754H11.3135C10.9345 60.7754 10.6272 61.0539 10.6272 61.3976C10.6272 61.7412 10.9345 62.0197 11.3135 62.0197H47.6879C48.067 62.0197 48.3742 61.7412 48.3742 61.3976C48.3742 61.0539 48.067 60.7754 47.6879 60.7754Z" fill="white" fill-opacity="0.4"/>
</g>
</g>
<defs>
<filter id="filter0_d_1_1415" x="4.75694" y="37.0814" width="56.1402" height="42.3559" filterUnits="userSpaceOnUse" color-interpolation-filters="sRGB">
<feFlood flood-opacity="0" result="BackgroundImageFix"/>
<feColorMatrix in="SourceAlpha" type="matrix" values="0 0 0 0 0 0 0 0 0 0 0 0 0 0 0 0 0 0 127 0" result="hardAlpha"/>
<feOffset/>
<feGaussianBlur stdDeviation="9.55181"/>
<feComposite in2="hardAlpha" operator="out"/>
<feColorMatrix type="matrix" values="0 0 0 0 1 0 0 0 0 1 0 0 0 0 1 0 0 0 0.65 0"/>
<feBlend mode="normal" in2="BackgroundImageFix" result="effect1_dropShadow_1_1415"/>
<feBlend mode="normal" in="SourceGraphic" in2="effect1_dropShadow_1_1415" result="shape"/>
</filter>
<filter id="filter1_d_1_1415" x="1.13197" y="49.5231" width="60.1692" height="39.4516" filterUnits="userSpaceOnUse" color-interpolation-filters="sRGB">
<feFlood flood-opacity="0" result="BackgroundImageFix"/>
<feColorMatrix in="SourceAlpha" type="matrix" values="0 0 0 0 0 0 0 0 0 0 0 0 0 0 0 0 0 0 127 0" result="hardAlpha"/>
<feOffset dy="14.6951"/>
<feGaussianBlur stdDeviation="9.55181"/>
<feComposite in2="hardAlpha" operator="out"/>
<feColorMatrix type="matrix" values="0 0 0 0 1 0 0 0 0 1 0 0 0 0 1 0 0 0 0.4 0"/>
<feBlend mode="normal" in2="BackgroundImageFix" result="effect1_dropShadow_1_1415"/>
<feBlend mode="normal" in="SourceGraphic" in2="effect1_dropShadow_1_1415" result="shape"/>
</filter>
<filter id="filter2_d_1_1415" x="-8.47643" y="34.3242" width="75.9543" height="39.4516" filterUnits="userSpaceOnUse" color-interpolation-filters="sRGB">
<feFlood flood-opacity="0" result="BackgroundImageFix"/>
<feColorMatrix in="SourceAlpha" type="matrix" values="0 0 0 0 0 0 0 0 0 0 0 0 0 0 0 0 0 0 127 0" result="hardAlpha"/>
<feOffset dy="-7.34755"/>
<feGaussianBlur stdDeviation="9.55181"/>
<feComposite in2="hardAlpha" operator="out"/>
<feColorMatrix type="matrix" values="0 0 0 0 1 0 0 0 0 1 0 0 0 0 1 0 0 0 0.4 0"/>
<feBlend mode="normal" in2="BackgroundImageFix" result="effect1_dropShadow_1_1415"/>
<feBlend mode="normal" in="SourceGraphic" in2="effect1_dropShadow_1_1415" result="shape"/>
</filter>
<clipPath id="clip0_1_1415">
<rect width="62.4542" height="77.1493" fill="white" transform="translate(0.272827 0.495361)"/>
</clipPath>
</defs>
</svg>
